<?xml version="1.0" encoding="UTF-8"?><svg id="Layer_2" xmlns="http://www.w3.org/2000/svg" viewBox="0 0 205.39 209.11"><defs><style>.cls-1{fill:#f7c4c4;}.cls-1,.cls-2{stroke-width:0px;}.cls-2{fill:#fcd9d9;}</style></defs><g id="PRIMARY_LOGO"><g id="LOGO_SHAPE_WITH_DETIAL"><path class="cls-1" d="M.4,118.76c1.85,20.58,15.63,35.01,37.64,37.71,1.32.16,1.97,1.48,1.59,2.76-9.75,32.58,30.48,49.9,63.07,49.89,38.12-.01,80.23-13.53,68.93-48.83-.39-1.21,1.01-2.27,2.28-2.1,15.93,2.13,31.44-19.53,31.48-45.18.01-8.5-3.43-17.17-7.37-27.11-.21-.54-.17-1.14.1-1.65C220.34,41.86,147.34-22,110.05,7.55c-2.05,1.62-3.69-.29-4.34-.65C62.92-16.7-3.8,39.21,11.26,79.39c.19.51.17,1.08-.06,1.57C3.19,97.51-1.43,107.31.4,118.76Z"/><path class="cls-2" d="M114.44,80.71c-.36,3.04-7.85,10.1-10.8,9.22-.18-.05-.95-1.52-.95-1.71-.67-32.49-48.96-47.48-77.18-17.76-1.04,1.09-2.86,1.19-4.05.26-14.91-11.55,14.14-43.98,24.99-50.7,21.91-12.28,50.12-20.39,64.93-.3,3.28,4.45,8.22,9.65,11.57,15.08,3.21,5.2,3.48,14.16,1.11,19.79l-6.43,11.08-3.18,15.05Z"/><path class="cls-2" d="M120.93,65.6c10.54-18.18,13.01-22.78-2.68-42.44-1.06-1.33-8.91-8.37-7.85-9.7,12.81-16.23,48.81-3.48,61.9,9.37,19.59,19.23,39.57,69.66,13.95,48.92-.16-.13-17.08-15.31-21.25-17.14-14.61-6.44-37.79.6-42.19,13.71-.85,2.52-3.21-.4-1.87-2.71Z"/><path class="cls-2" d="M124.04,150.13c-.13.12-.76.08-1.13-.3l-12.56-12.63c-1.08-1.06-2.88-.08-2.57,1.39l2.79,13.08c.16.73-.91,1.01-1.14.3l-3.09-9.64c-.46-1.44-2.53-1.4-2.93.06l-2.43,8.8c-.2.72-1.29.48-1.15-.26l2.17-11.73c.29-1.55-1.7-2.46-2.69-1.22l-16.59,24.33c-.42.53-1.26.04-1.01-.58l10.35-20.55c.64-1.6-.63-2.67-1.75-1.35l-8.72,9.14c-.47.56-1.34-.07-.95-.69l18.29-20.15c.84-1.31-.6-2.88-1.99-2.16-8.18,4.21-39.74,15.32-48.32,25.14-4.71,5.39-4.86,18.88-2.75,25.7,11.21,36.13,110.42,37.12,120.82,1.14,1.73-5.99,2.55-15.98-5.23-25.49-5.53-6.75-33.16-18.28-52.16-26.53-1.54-.67-2.88,1.27-1.7,2.46,4.47,4.53,20.83,13.74,23.78,16.72.52.53-.22,1.33-.8.86l-10.46-6.62c-1.35-1.09-2.64.24-1.69,1.69l5.87,7.62c.34.56.31,1.16-.27,1.48h0Z"/><path class="cls-2" d="M83.93,125.52c-13.93,7.89-44.41,28.73-56.59,23.54-43.85-22.33-8.2-98.39,48.83-88.34,0,0,22.39,4.33,22.39,33.68,0,1.67-6.7,15.25-7.33,13.7-3.06-7.48-8.69-14.96-11.39-22.39-.33-.9-1.69-.49-1.46.45l3.95,10.57c.39,1.61-1.37,3.04-2.36,1.7l-3.7-6.78c-.56-.75-1.37.41-.94,1.24l1.29,2.5c.79,1.53-1.19,2.98-2.43,1.78l-2.55-2.47c-.7-.68-1.75.3-1.12,1.04l4.36,5.03c1.08,1.25-.33,3.07-1.82,2.36l-10.59-5.03c-.87-.41-1.55.81-.74,1.33l10.11,6.44c1.39.89.57,3.03-1.06,2.78l-14.93-2.31c-.93-.14-1.25,1.19-.36,1.48l14.62,4.74c1.5.49,1.36,2.64-.18,2.94l-11.35,2.18c-.88.17-.8,1.45.1,1.51l6.53.42c1.73.11,1.96,2.55.28,2.99l-7.89,2.03c-.93.24-.66,1.62.3,1.49l25.07-3.41c1.67-.23,2.43,1.99.97,2.82Z"/><path class="cls-2" d="M123.54,125.46c13.75,7.48,42.19,31.38,58.09,22.87,41.98-22.49.48-103.93-41.78-90.02,0,0-22.41,3.26-22.22,35.21,0,1.67,2.32,2.12,2.95.57,3.67-8.96,7-15.19,9.15-18.84.45-.76,1.61-.28,1.4.57l-4.73,19.39c-.09.37.4.6.63.29l3.46-4.66c.56-.75,1.73-.03,1.3.8l-5.35,10.41c-.03.07.05.13.1.08l8.94-8.68c.7-.68,1.75.3,1.12,1.04l-4.36,5.03c-1.08,1.25.33,3.07,1.82,2.36l10.59-5.03c.87-.41,1.55.81.74,1.33l-10.11,6.44c-1.39.89-.57,3.03,1.06,2.78l14.93-2.31c.93-.14,1.25,1.19.36,1.48l-14.62,4.74c-1.5.49-1.36,2.64.18,2.94l11.35,2.18c.88.17.8,1.45-.1,1.51l-6.53.42c-1.73.11-1.96,2.55-.28,2.99l10.46,2.69c.92.24.67,1.59-.27,1.49l-27.38-2.9c-1.66-.18-2.36,2.04-.9,2.84Z"/><path class="cls-1" d="M104.28,155.05l-1.08,6.67c-.84,5.18-.89,10.45-.16,15.64l1.24,8.8c.11.8,1.28.8,1.39,0l1.24-8.54c.78-5.37.72-10.83-.17-16.18l-1.07-6.41c-.13-.78-1.26-.78-1.39,0Z"/><path class="cls-1" d="M91.46,157.73l-.59,1.07c-1.1,1.97-1.89,4.09-2.36,6.3l-.39,1.84c-.14.65.76.98,1.08.39l.84-1.56c1.1-2.06,1.88-4.27,2.3-6.56l.2-1.09c.12-.64-.76-.95-1.08-.38Z"/><path class="cls-1" d="M118.67,156.47l.74.97c1.37,1.79,2.47,3.78,3.25,5.89l.65,1.77c.23.63-.61,1.08-1.01.54l-1.06-1.43c-1.39-1.88-2.48-3.96-3.23-6.16l-.36-1.05c-.21-.62.61-1.05,1.01-.53Z"/><path class="cls-1" d="M130.28,150.7l1.21,2c2.04,3.36,4.57,6.4,7.51,9.02l2.63,2.35c.84.75,2.08-.28,1.48-1.23l-1.77-2.82c-2.16-3.45-4.84-6.54-7.96-9.17l-1.64-1.38c-.84-.71-2.04.3-1.47,1.24Z"/><path class="cls-1" d="M76.27,148.51l-2.8,2.36c-3.07,2.59-5.73,5.61-7.9,8.98l-2.73,4.25c-.46.72.47,1.51,1.11.95l3.67-3.19c3.13-2.72,5.82-5.91,7.97-9.45l1.79-2.95c.43-.71-.47-1.48-1.11-.94Z"/></g></g></svg>